<svg xmlns="http://www.w3.org/2000/svg" viewBox="0 0 241.6 241.6"><defs><style>.cls-1{fill:#005042;}.cls-2{fill:#fff;}</style></defs><title>Zasób 2</title><g id="Warstwa_2" data-name="Warstwa 2"><g id="Warstwa_1-2" data-name="Warstwa 1"><g id="_2984032184192" data-name=" 2984032184192"><path class="cls-1" d="M120.8,0c66.54,0,120.8,54.27,120.8,120.8S187.34,241.6,120.8,241.6,0,187.34,0,120.8,54.27,0,120.8,0Z"/><path class="cls-2" d="M120.8,2.42C186,2.42,239.19,55.6,239.19,120.8S186,239.19,120.8,239.19,2.42,186,2.42,120.8,55.6,2.42,120.8,2.42Z"/><path class="cls-1" d="M120.8,35.75a85.05,85.05,0,1,1-85,85.05A85.22,85.22,0,0,1,120.8,35.75Z"/><path class="cls-2" d="M120.8,38.66A82.15,82.15,0,1,1,38.66,120.8,82.3,82.3,0,0,1,120.8,38.66Z"/><path class="cls-1" d="M123.29,94.83l4.46-21.57,29.39,0c7.27.41,11.21,2,16.4,7.82,3.48,3.87,5.43,9.8,5.19,16a25.74,25.74,0,0,1-9,17.91,24.42,24.42,0,0,1-12.47,5.24l-14.24.48,4.75-22.74H152c1.89,0,3.55.2,3.56-1.71,0-1.16-1.64-1.39-3.56-1.39ZM109.47,162l13.2-64.18,21.63,0-8.88,43.63,11.74,0L143,162l-33.52,0Zm-3.33,0,18.68-91L97,104.69l5.86,0L75.64,135H82L57.93,162Z"/><path class="cls-1" d="M30.57,111.78l-19-3.7.76-3.87,15.78,3.07L30,97.66l3.24.63-2.63,13.49Zm9.91-33.3-1.61,4-4.75-.08L31.2,89.61l3.51,3.16-1.57,3.88L17.89,82.28l1.56-3.86ZM30.6,82.32l-7.73-.22,5.74,5.16,2-4.94ZM36.22,73l2-3.32a4.64,4.64,0,0,0,3.12.53,4.29,4.29,0,0,0,2.41-1.78,4.38,4.38,0,0,0,1-2.79,2.37,2.37,0,0,0-.95-1.89,1.74,1.74,0,0,0-1.2-.36,3.09,3.09,0,0,0-1.51.65c-.41.27-1.25,1-2.55,2a10.66,10.66,0,0,1-4.18,2.46,5.09,5.09,0,0,1-4.23-.85,5,5,0,0,1-1.76-2.33,5.33,5.33,0,0,1-.17-3.13,9.86,9.86,0,0,1,1.71-3.51,8.25,8.25,0,0,1,4.56-3.53,5.71,5.71,0,0,1,4.63,1L36.9,59.46a3.37,3.37,0,0,0-2.39-.39,4,4,0,0,0-2,1.63,4.46,4.46,0,0,0-1,2.59,1.4,1.4,0,0,0,.61,1.22,1.47,1.47,0,0,0,1.3.22,10.07,10.07,0,0,0,3.19-2.16A18.94,18.94,0,0,1,40.23,60a5.53,5.53,0,0,1,2.88-.58,5.86,5.86,0,0,1,3,1.2,5.74,5.74,0,0,1,2,2.6,5.65,5.65,0,0,1,.21,3.41,11.1,11.1,0,0,1-1.92,3.86A8.46,8.46,0,0,1,41.64,74a7.4,7.4,0,0,1-5.42-1ZM56.74,57.16l-5.6-6L38.2,47.76l3.38-3.16,8.63,2.52-2-8.72,3.32-3.1L54,48.49l5.59,6ZM72.81,43.92,64,26.53l5.63-2.87a23.49,23.49,0,0,1,4.31-1.87,5.08,5.08,0,0,1,3.38.43A6.07,6.07,0,0,1,80,25.09a6.28,6.28,0,0,1,.79,3,5.46,5.46,0,0,1-.6,2.47,5.9,5.9,0,0,1-1.4,1.75,24,24,0,0,1-3.52,2.11L73,35.57l3.34,6.56-3.51,1.79ZM69,27.68l2.51,4.94,1.92-1A10.15,10.15,0,0,0,76,30a2.58,2.58,0,0,0,.67-1.41A2.64,2.64,0,0,0,76.4,27a2.51,2.51,0,0,0-1.35-1.28,2.74,2.74,0,0,0-1.81-.05,17.55,17.55,0,0,0-2.58,1.17l-1.7.86Zm36,3.89-4.15,1.11-2.79-3.84-7.54,2-.41,4.7-4,1.08,2.29-20.82,4-1.08L105,31.57ZM96,26l-4.47-6.3-.67,7.68Zm11.74,5.33-1.36-19.48,3.83-.26L119.06,24l-.91-13,3.65-.26,1.36,19.48-3.94.27-8.74-12.15.89,12.7ZM128.49,24l3.84.3a4.67,4.67,0,0,0,.89,3,4.3,4.3,0,0,0,2.66,1.39,4.35,4.35,0,0,0,3-.3,2.38,2.38,0,0,0,1.28-1.69,1.78,1.78,0,0,0-.19-1.23,3.21,3.21,0,0,0-1.25-1.08c-.43-.24-1.42-.7-3-1.39a10.73,10.73,0,0,1-4.05-2.67,5.09,5.09,0,0,1-1.09-4.18,5,5,0,0,1,1.32-2.6,5.34,5.34,0,0,1,2.74-1.53,9.81,9.81,0,0,1,3.9,0,8.31,8.31,0,0,1,5.18,2.55,5.7,5.7,0,0,1,1.17,4.58L141,18.68a3.34,3.34,0,0,0-.7-2.32,4,4,0,0,0-2.34-1.08,4.42,4.42,0,0,0-2.77.23,1.4,1.4,0,0,0-.83,1.08,1.49,1.49,0,0,0,.37,1.27,10.19,10.19,0,0,0,3.34,1.91A19,19,0,0,1,142,21.9a5.47,5.47,0,0,1,1.78,2.33,6.13,6.13,0,0,1-1.24,6.13,5.59,5.59,0,0,1-3,1.68,11.15,11.15,0,0,1-4.31,0,8.46,8.46,0,0,1-5.3-2.67A7.42,7.42,0,0,1,128.49,24Zm22.56,11.64,5.81-15.14-5.41-2.07,1.19-3.09,14.48,5.56L165.94,24l-5.4-2.07-5.81,15.14-3.68-1.42Zm14.54,6.17L173,23.16l3.31,2.31L171,38.15l10.61-8.94,3.84,2.69-5,13.13,10.28-9.45L194,37.85,178.88,51.13l-3.43-2.4,5.19-14.19-11.55,9.73-3.5-2.45Zm25.49,7.67a12.39,12.39,0,0,1,4.36-2.62,9.37,9.37,0,0,1,3.21-.38,7.53,7.53,0,0,1,3,.75A10.78,10.78,0,0,1,205,49.91a9.17,9.17,0,0,1,2.51,7q-.31,3.7-3.92,6.84a10.23,10.23,0,0,1-7.27,2.91,9.11,9.11,0,0,1-6.52-3.43,9.2,9.2,0,0,1-2.54-7A10,10,0,0,1,191.08,49.49Zm2.76,3a7.31,7.31,0,0,0-2.79,4.46,5.26,5.26,0,0,0,5.08,5.86,7.48,7.48,0,0,0,4.84-2.2,7.38,7.38,0,0,0,2.81-4.4,5.46,5.46,0,0,0-5.16-5.9,7.4,7.4,0,0,0-4.78,2.18Zm5.53,23.4L215.1,63.39,216.8,67l-10.91,8.34L219.55,73l2,4.24-10.91,8.87,13.63-3,1.67,3.6-19.69,4-1.77-3.79L216,77.08l-14.86,2.66-1.81-3.88Zm9.06,22.19,19.16-3.73,2.76,14.21-3.24.63-2-10.34-4.25.83,1.87,9.62-3.22.63-1.87-9.62-5.22,1L214.49,112l-3.23.62-2.83-14.57Z"/><polygon class="cls-1" points="112.99 11.31 114.4 7.16 118.57 6.72 115.34 11.06 112.99 11.31"/><polygon class="cls-1" points="110.65 230.15 106.5 229.52 102.39 228.77 98.34 227.9 94.34 226.91 90.39 225.81 86.5 224.58 82.68 223.25 78.92 221.81 75.23 220.26 71.61 218.61 68.07 216.85 64.6 215 61.22 213.05 57.93 211.01 54.72 208.88 51.61 206.66 48.59 204.36 45.67 201.97 42.86 199.51 40.15 196.96 37.55 194.34 35.06 191.65 32.7 188.89 30.45 186.07 28.32 183.18 26.32 180.22 24.45 177.21 22.72 174.15 21.12 171.03 19.66 167.85 18.35 164.63 17.19 161.37 18.74 160.85 19.88 164.05 21.17 167.2 22.6 170.31 24.16 173.37 25.86 176.38 27.7 179.33 29.66 182.23 31.75 185.07 33.96 187.85 36.29 190.56 38.73 193.21 41.29 195.79 43.96 198.29 46.73 200.72 49.61 203.07 52.58 205.34 55.65 207.53 58.81 209.63 62.06 211.65 65.4 213.57 68.82 215.4 72.31 217.13 75.89 218.76 79.53 220.29 83.24 221.71 87.02 223.03 90.86 224.23 94.76 225.33 98.71 226.31 102.72 227.17 106.77 227.91 110.86 228.52 110.65 230.15"/><polygon class="cls-1" points="120.81 223 116.36 222.61 111.96 222.06 107.63 221.37 103.36 220.53 99.16 219.56 95.03 218.45 90.98 217.2 87.01 215.83 83.12 214.32 79.32 212.7 75.61 210.95 71.99 209.09 68.46 207.11 65.04 205.03 61.72 202.83 58.51 200.54 55.41 198.14 52.42 195.65 49.55 193.06 46.8 190.38 44.17 187.62 41.67 184.78 39.3 181.85 37.06 178.84 34.97 175.77 33.01 172.62 31.2 169.41 29.53 166.13 28.02 162.8 26.66 159.41 25.46 155.96 24.43 152.47 26.01 152.04 27.02 155.46 28.2 158.83 29.53 162.16 31.01 165.43 32.64 168.64 34.42 171.79 36.34 174.88 38.4 177.89 40.59 180.84 42.92 183.72 45.38 186.51 47.96 189.23 50.67 191.86 53.49 194.41 56.44 196.86 59.49 199.22 62.65 201.48 65.92 203.64 69.29 205.7 72.76 207.65 76.33 209.48 79.99 211.2 83.74 212.81 87.57 214.29 91.49 215.65 95.48 216.87 99.56 217.97 103.7 218.93 107.91 219.76 112.19 220.44 116.53 220.98 120.93 221.37 120.81 223"/><polygon class="cls-1" points="113.19 213.25 109.77 212.73 106.39 212.1 103.06 211.38 99.78 210.56 96.55 209.65 93.37 208.64 90.25 207.55 87.18 206.37 84.18 205.1 81.23 203.74 78.35 202.31 75.53 200.8 72.78 199.21 70.1 197.54 67.49 195.8 64.96 193.99 62.5 192.11 60.12 190.16 57.83 188.15 55.61 186.07 53.48 183.93 51.44 181.73 49.48 179.48 47.62 177.17 45.85 174.81 44.18 172.4 42.61 169.93 41.14 167.43 39.77 164.87 38.5 162.28 37.34 159.64 36.29 156.96 37.83 156.4 38.85 159.01 39.99 161.59 41.22 164.13 42.56 166.62 44.01 169.08 45.55 171.49 47.18 173.85 48.92 176.16 50.74 178.43 52.66 180.64 54.66 182.79 56.75 184.89 58.93 186.93 61.18 188.91 63.52 190.82 65.93 192.67 68.42 194.45 70.99 196.16 73.62 197.8 76.33 199.37 79.1 200.85 81.94 202.26 84.84 203.6 87.8 204.84 90.82 206.01 93.89 207.09 97.02 208.08 100.2 208.98 103.44 209.78 106.72 210.5 110.04 211.11 113.41 211.63 113.19 213.25"/><polygon class="cls-1" points="110.95 230.13 109.99 228.8 120.2 221.4 121.17 222.72 110.95 230.13"/><polygon class="cls-1" points="112.39 212.94 113.69 211.94 121.18 221.66 119.89 222.66 112.39 212.94"/><path class="cls-1" d="M112.19,221.9l-11.13,6.43-.82-1.42,11.13-6.43,1.1.27-.28,1.15Zm.28-1.15.46.72-.74.43ZM106,210.54l6.47,10.21-1.38.88-6.47-10.21Z"/><path class="cls-1" d="M103.42,220.39l-12,5.61-.69-1.48,12-5.62,1.07.35-.38,1.14Zm.38-1.14.41.77-.79.37ZM98,208.65l5.76,10.6-1.44.79L96.6,209.43Z"/><path class="cls-1" d="M94.52,218.15l-12.21,4.91-.61-1.52,12.21-4.91,1.07.45Zm.46-1.07.3.76-.76.31Zm-4.35-10.8L95,217.08l-1.52.62-4.35-10.8Z"/><path class="cls-1" d="M86,215.37l-12.74,3.89-.47-1.57,12.73-3.89,1,.57Zm.55-1,.22.77-.77.23Zm-3-11,3,11-1.58.44-3-11Z"/><path class="cls-1" d="M34.12,174l-13.27-4.07.49-1.57,13.26,4.07.47,1.18-1,.39Zm1-.39-.32.58-.63-.19,1-.39Zm5.57-10-5.57,10-1.43-.79,5.57-10Z"/><path class="cls-1" d="M38.77,180.65l-13.72-2.91.34-1.61L39.12,179l.58,1.13-.93.48Zm.93-.48-.26.62-.67-.14.93-.48Zm4.45-10.44L39.7,180.17l-1.51-.64,4.45-10.44Z"/><path class="cls-1" d="M44,186.92l-14.11-1.86.22-1.63,14.11,1.86.68,1.05-.9.58Zm.9-.58-.21.67-.69-.09Zm3.22-10.65-3.22,10.65-1.57-.47,3.22-10.65Z"/><path class="cls-1" d="M49.76,193l-14.12-1,.11-1.64,14.12,1,.75,1-.86.66Zm.86-.66-.15.71-.71,0Zm2.24-11-2.24,11L49,192l2.24-11Z"/><path class="cls-1" d="M56.18,198.54,42,198.45v-1.64l14.15.09.81.9Zm.82-.74-.08.74h-.74Zm1.13-11.15L57,197.8l-1.63-.17,1.13-11.15Z"/><path class="cls-1" d="M62.09,202.72l.12-11.34h1.64l-.12,11.35-.76.81-.88-.83Zm1.64,0v.75l-.75.06.76-.81ZM49,202.9l13.84-1,.12,1.64-13.84,1L49,202.9Z"/><path class="cls-1" d="M78.23,212.08,64.68,215l-.34-1.6,13.55-2.9,1,.63Zm.64-1,.16.8-.8.17.64-1ZM76.54,200l2.33,11.16-1.61.34-2.32-11.17,1.6-.33Z"/><path class="cls-1" d="M70.3,207.91,56.74,210l-.25-1.62,13.56-2.13L71,207ZM71,207l.06.76-.75.11Zm-.87-11L71,207l-1.63.13-.88-11Z"/><path class="cls-1" d="M24.74,152.3l-.35-1.23,1-.28,12,5.13-.65,1.51Zm-.35-1.23.39-.54.6.26-1,.28Zm-5.61,10.72-1,.29-.36-1.24,7-9.77,1.34,1Zm-1,.29-1-.39.6-.85Zm13,3.46.37,1.22-1,.3-12.43-5,.62-1.53Zm.37,1.22-.37.55-.61-.25Zm5.19-10.55,1-.29.35,1.21-6.54,9.63-1.36-.92Zm1-.29.91.39-.56.82-.35-1.21Z"/><polygon class="cls-1" points="130.87 230.13 130.65 228.5 134.75 227.89 138.8 227.15 142.8 226.29 146.76 225.31 150.65 224.22 154.49 223.01 158.27 221.69 161.98 220.27 165.63 218.74 169.2 217.11 172.7 215.38 176.11 213.55 179.45 211.63 182.7 209.61 185.86 207.51 188.93 205.32 191.91 203.05 194.78 200.7 197.56 198.27 200.22 195.77 202.78 193.19 205.22 190.54 207.56 187.83 209.77 185.05 211.85 182.21 213.82 179.31 215.65 176.36 217.35 173.35 218.92 170.29 220.34 167.18 221.63 164.03 222.77 160.83 224.32 161.35 223.16 164.61 221.85 167.83 220.39 171 218.79 174.13 217.06 177.19 215.19 180.21 213.19 183.16 211.07 186.05 208.82 188.88 206.45 191.63 203.96 194.32 201.36 196.94 198.66 199.49 195.84 201.95 192.92 204.34 189.91 206.64 186.79 208.86 183.59 210.99 180.29 213.03 176.91 214.98 173.45 216.83 169.9 218.59 166.28 220.24 162.59 221.79 158.83 223.23 155.01 224.56 151.12 225.78 147.17 226.89 143.17 227.88 139.12 228.75 135.02 229.5 130.87 230.13"/><polygon class="cls-1" points="120.7 222.98 120.58 221.34 124.98 220.96 129.32 220.42 133.6 219.74 137.82 218.91 141.96 217.95 146.03 216.85 150.03 215.63 153.94 214.27 157.78 212.79 161.53 211.18 165.18 209.46 168.75 207.63 172.22 205.68 175.59 203.62 178.86 201.46 182.03 199.2 185.08 196.84 188.02 194.39 190.85 191.84 193.55 189.21 196.13 186.5 198.59 183.7 200.92 180.82 203.11 177.88 205.17 174.86 207.09 171.77 208.87 168.62 210.5 165.41 211.99 162.14 213.31 158.81 214.49 155.44 215.51 152.02 217.09 152.45 216.05 155.94 214.85 159.39 213.49 162.78 211.98 166.12 210.31 169.39 208.5 172.6 206.55 175.75 204.45 178.83 202.21 181.83 199.84 184.75 197.34 187.6 194.72 190.37 191.97 193.04 189.09 195.63 186.1 198.12 183 200.52 179.79 202.81 176.47 205.01 173.05 207.09 169.53 209.07 165.91 210.93 162.2 212.68 158.4 214.31 154.51 215.81 150.53 217.18 146.49 218.43 142.36 219.54 138.16 220.52 133.89 221.35 129.55 222.04 125.16 222.59 120.7 222.98"/><polygon class="cls-1" points="128.33 213.23 128.1 211.61 131.47 211.09 134.8 210.48 138.08 209.76 141.31 208.96 144.49 208.06 147.62 207.07 150.7 205.99 153.72 204.82 156.68 203.58 159.58 202.25 162.41 200.84 165.19 199.35 167.89 197.78 170.53 196.14 173.09 194.43 175.58 192.65 177.99 190.8 180.33 188.89 182.59 186.91 184.76 184.87 186.85 182.78 188.86 180.62 190.77 178.41 192.6 176.15 194.33 173.83 195.97 171.47 197.51 169.06 198.95 166.6 200.29 164.11 201.53 161.57 202.66 158.99 203.69 156.38 205.22 156.94 204.17 159.62 203.01 162.26 201.75 164.85 200.38 167.41 198.91 169.91 197.33 172.38 195.66 174.79 193.89 177.15 192.03 179.46 190.08 181.71 188.03 183.91 185.9 186.05 183.69 188.13 181.39 190.14 179.01 192.09 176.55 193.97 174.02 195.78 171.41 197.52 168.73 199.19 165.98 200.78 163.17 202.29 160.28 203.72 157.34 205.08 154.33 206.34 151.26 207.53 148.14 208.62 144.96 209.63 141.73 210.54 138.45 211.36 135.12 212.08 131.75 212.71 128.33 213.23"/><polygon class="cls-1" points="130.56 230.11 120.35 222.71 121.31 221.38 131.52 228.78 130.56 230.11"/><polygon class="cls-1" points="129.12 212.92 121.63 222.64 120.33 221.64 127.82 211.92 129.12 212.92"/><path class="cls-1" d="M129.32,221.88l-.28-1.15,1.1-.27,11.13,6.43-.82,1.42-11.13-6.43Zm0,0-.74-.43.46-.72.28,1.15Zm6.19-11.35,1.39.87-6.47,10.21-1.39-.88Z"/><path class="cls-1" d="M138.09,220.37l-.37-1.14,1.06-.35,12.05,5.62-.7,1.48-12-5.61Zm0,0-.79-.37.42-.77Zm5.38-11.74,1.45.78L139.16,220l-1.44-.79Z"/><path class="cls-1" d="M147,218.13l-.45-1.07,1.06-.45,12.21,4.91L159.2,223Zm0,0-.76-.31.31-.76Zm3.89-11.87,1.53.62-4.35,10.8-1.52-.62Z"/><path class="cls-1" d="M155.5,215.35l-.55-1,1-.57,12.74,3.89-.48,1.57Zm0,0-.76-.23.21-.77Zm2.49-12,1.58.44-3,11-1.58-.44Z"/><path class="cls-1" d="M207.4,174l-1-.39.47-1.18,13.27-4.07.48,1.57Zm0,0-.64.19-.32-.58Zm-6.53-10.38,1.43-.8,5.57,10-1.43.79Z"/><path class="cls-1" d="M202.74,180.63l-.93-.48.59-1.13,13.72-2.91.35,1.61-13.73,2.91Zm0,0-.66.14-.27-.62.93.48Zm-5.37-10.91,1.51-.65,4.44,10.44-1.51.64Z"/><path class="cls-1" d="M197.47,186.9l-.89-.58.68-1,14.11-1.86.21,1.63Zm0,0-.69.09-.2-.67Zm-4.12-11.23,1.57-.47,3.23,10.65-1.57.47Z"/><path class="cls-1" d="M191.76,193l-.86-.66.74-1,14.12-1,.12,1.64-14.12,1Zm0,0L191,193l-.14-.71Zm-3.11-11.63,1.61-.33,2.24,11-1.6.32Z"/><path class="cls-1" d="M185.34,198.52l-.82-.74.81-.9,14.14-.09,0,1.64Zm0,0h-.75l-.07-.74Zm-2-11.89,1.63-.16,1.14,11.15-1.63.16Z"/><path class="cls-1" d="M179.42,202.7l-.87.83-.77-.81-.12-11.35h1.64l.12,11.34Zm-.87.83-.76-.06v-.75Zm13.95-.65-.11,1.64-13.84-1,.11-1.64Z"/><path class="cls-1" d="M163.28,212.06l-.63-1,1-.63,13.55,2.9-.34,1.6Zm0,0-.8-.17.17-.8.63,1ZM165,199.93l1.61.34-2.33,11.16-1.6-.34L165,199.93Z"/><path class="cls-1" d="M171.21,207.9l-.69-.88.94-.75L185,208.4l-.26,1.62Zm0,0-.75-.12.06-.76ZM171.4,196l1.63.14-.87,11-1.64-.13Z"/><path class="cls-1" d="M216.78,152.28l-12,5.13-.64-1.51,12-5.13,1,.28Zm-.65-1.51.61-.26.38.54-1-.28Zm6.61,11-7-9.77,1.33-.95,6.95,9.77-.36,1.24Zm1.33-1,.6.85-1,.39Zm-13.39,4.7,12.42-5,.61,1.53-12.42,5-1-.3Zm.61,1.52-.62.25-.37-.55Zm-6.17-10.85,6.54,9.63-1.36.92-6.54-9.63.36-1.21,1,.29Zm-1.36.92-.56-.82.92-.39Z"/></g></g></g></svg>